<svg xmlns="http://www.w3.org/2000/svg" xmlns:xlink="http://www.w3.org/1999/xlink" viewBox="0 0 54 54" class="design-iconfont">
  <defs>
    <linearGradient x1="0%" y1="25.431167%" x2="87.4457608%" y2="63.457149%" id="7y4guzte7__yyd9lit2yb">
      <stop stop-color="#83B2FF" offset="0%"/>
      <stop stop-color="#599CFF" offset="100%"/>
    </linearGradient>
    <linearGradient x1="50%" y1="50%" x2="50%" y2="100%" id="7y4guzte7__nr2ykxh37f">
      <stop stop-color="#FFF" offset="0%"/>
      <stop stop-color="#D3E4FF" offset="100%"/>
    </linearGradient>
    <path id="7y4guzte7__rv33xda9aa" d="M27 0A27 27 0 1 0 27 54A27 27 0 1 0 27 0Z"/>
    <path d="M15.01842,0 C20.4200616,0 24.8165638,4.44126003 24.9616134,9.97611041 L24.962957,10.1026438 C24.9671563,10.1526256 24.9693,10.2032252 24.9693,10.2543536 L24.969,15.907 L27.3433279,15.9071768 C28.6732458,15.9597208 29.7663264,16.9816037 29.9775088,18.3075915 L30,18.4822164 L30,37.7288127 C29.7989721,38.8052301 29.0101551,39.6709155 27.9920436,39.9558258 L27.8100696,40 L2.37003684,40 C1.19651872,39.8270637 0.257044283,38.8998331 0.0288369446,37.7105816 L0,37.5302902 L0,18.7737203 C0.00384318006,17.2492407 1.1617791,16.0026568 2.61822836,15.9124084 L2.78755628,15.9071768 L5.071,15.907 L5.0716844,10.423219 C5.0716844,10.3675038 5.07425292,10.3123928 5.07927422,10.2580053 L5.0716844,10.2584697 C5.0716844,4.59308707 9.52517397,0 15.01842,0 Z M15,19.6666667 C14.1469286,19.6666667 13.4468765,20.3218203 13.3755499,21.1564213 L13.3695652,21.2971014 L13.3695652,26.0362319 C13.3695652,26.9366962 14.0995357,27.6666667 15,27.6666667 C15.8530714,27.6666667 16.5531235,27.0115131 16.6244501,26.176912 L16.6304348,26.0362319 L16.6304348,21.2971014 C16.6304348,20.3966372 15.9004643,19.6666667 15,19.6666667 Z M15.01842,3.45751979 C11.4567762,3.45751979 8.55018394,6.37312324 8.4281115,10.0196396 L8.42411993,10.2584697 C8.42557403,10.3126 8.42811093,10.3675966 8.42811093,10.423219 L8.428,15.907 L21.612,15.907 L21.6126688,10.2543536 C21.6126688,6.50126649 18.6614306,3.45751979 15.01842,3.45751979 Z" id="7y4guzte7__6v65i846ne"/>
    <filter x="-43.3%" y="-27.5%" width="186.7%" height="165%" filterUnits="objectBoundingBox" id="7y4guzte7__y3v1r6c4rd">
      <feOffset dy="2" in="SourceAlpha" result="shadowOffsetOuter1"/>
      <feGaussianBlur stdDeviation="4" in="shadowOffsetOuter1" result="shadowBlurOuter1"/>
      <feColorMatrix values="0 0 0 0 0.0020184492 0 0 0 0 0.310921798 0 0 0 0 0.766554238 0 0 0 0.584723626 0" in="shadowBlurOuter1"/>
    </filter>
  </defs>
  <g fill="none" fill-rule="evenodd">
    <mask id="7y4guzte7__t17jstvlkc" fill="#fff">
      <use xlink:href="#7y4guzte7__rv33xda9aa"/>
    </mask>
    <use fill="url(#7y4guzte7__yyd9lit2yb)" xlink:href="#7y4guzte7__rv33xda9aa"/>
    <g mask="url(#7y4guzte7__t17jstvlkc)">
      <g transform="translate(12 18)">
        <use fill="#000" filter="url(#7y4guzte7__y3v1r6c4rd)" xlink:href="#7y4guzte7__6v65i846ne"/>
        <use fill="url(#7y4guzte7__nr2ykxh37f)" xlink:href="#7y4guzte7__6v65i846ne"/>
      </g>
    </g>
  </g>
</svg>
