<svg xmlns="http://www.w3.org/2000/svg" xmlns:xlink="http://www.w3.org/1999/xlink" viewBox="0 0 54 54" class="design-iconfont">
  <defs>
    <linearGradient x1="100%" y1="69.1035536%" x2="-12.6081949%" y2="30.5802434%" id="lmwg4ukdl__8l8wupnheb">
      <stop stop-color="#FD9900" offset="0%"/>
      <stop stop-color="#FFD147" offset="100%"/>
    </linearGradient>
    <linearGradient x1="50%" y1="20.3481129%" x2="50%" y2="100%" id="lmwg4ukdl__hbjv4tx5yf">
      <stop stop-color="#FFF" offset="0%"/>
      <stop stop-color="#FFF3D6" offset="100%"/>
    </linearGradient>
    <path id="lmwg4ukdl__ox5luxduya" d="M27 0A27 27 0 1 0 27 54A27 27 0 1 0 27 0Z"/>
    <path d="M37.4441916,18 L16.5558084,18 C14.5923512,18 13,19.6193098 13,21.6160084 L13,54.3841986 C13,56.3806902 14.5923512,58 16.5558084,58 L37.4441916,58 C39.4076488,58 41,56.3806902 41,54.3841986 L41,21.6160084 C41,19.6193098 39.4076488,18 37.4441916,18 Z M23.5588869,20.5774001 L30.4411131,20.5774001 C30.7830109,20.5774001 31.062269,20.8614378 31.062269,21.208917 C31.062269,21.5565514 30.7830109,21.8405891 30.4411131,21.8405891 L23.5588869,21.8405891 C23.2169891,21.8405891 22.937731,21.5565514 22.937731,21.208917 C22.937731,20.8614378 23.2169891,20.5774001 23.5588869,20.5774001 Z M27.0019845,53.8032383 C25.6181609,53.8032383 24.4967015,52.6629995 24.4967015,51.2557478 C24.4967015,49.848289 25.6181609,48.7080502 27.0019845,48.7080502 C28.3860117,48.7080502 29.5072675,49.848289 29.5072675,51.2557478 C29.5030949,52.6629995 28.3818391,53.8032383 27.0019845,53.8032383 Z M38.3986966,44.3799036 C38.3986966,44.8799839 38.0027078,45.282832 37.510953,45.282832 L16.4889961,45.282832 C15.9972413,45.282832 15.6010998,44.8799839 15.6010998,44.3799036 L15.6010998,25.1343707 C15.6010998,24.6340835 15.9972413,24.2314423 16.4889961,24.2314423 L37.5067805,24.2314423 C37.9985352,24.2314423 38.394524,24.6340835 38.394524,25.1343707 L38.394524,44.3799036 L38.3986966,44.3799036 Z" id="lmwg4ukdl__8y6veadl7e"/>
    <filter x="-46.4%" y="-27.5%" width="192.9%" height="165%" filterUnits="objectBoundingBox" id="lmwg4ukdl__48okmf9w1d">
      <feOffset dy="2" in="SourceAlpha" result="shadowOffsetOuter1"/>
      <feGaussianBlur stdDeviation="4" in="shadowOffsetOuter1" result="shadowBlurOuter1"/>
      <feColorMatrix values="0 0 0 0 1 0 0 0 0 0.453257577 0 0 0 0 0.0484666778 0 0 0 1 0" in="shadowBlurOuter1"/>
    </filter>
  </defs>
  <g fill="none" fill-rule="evenodd">
    <mask id="lmwg4ukdl__30izcuwnwc" fill="#fff">
      <use xlink:href="#lmwg4ukdl__ox5luxduya"/>
    </mask>
    <use fill="url(#lmwg4ukdl__8l8wupnheb)" xlink:href="#lmwg4ukdl__ox5luxduya"/>
    <g mask="url(#lmwg4ukdl__30izcuwnwc)">
      <use fill="#000" filter="url(#lmwg4ukdl__48okmf9w1d)" xlink:href="#lmwg4ukdl__8y6veadl7e"/>
      <use fill="url(#lmwg4ukdl__hbjv4tx5yf)" xlink:href="#lmwg4ukdl__8y6veadl7e"/>
    </g>
    <path d="M16.6010998,24.2314423 L37.3986966,24.2314423 C37.9509814,24.2314423 38.3986966,24.6791576 38.3986966,25.2314423 L38.3986966,44.282832 C38.3986966,44.8351167 37.9509814,45.282832 37.3986966,45.282832 L16.6010998,45.282832 C16.0488151,45.282832 15.6010998,44.8351167 15.6010998,44.282832 L15.6010998,25.2314423 C15.6010998,24.6791576 16.0488151,24.2314423 16.6010998,24.2314423 Z" fill="#FEB928" mask="url(#lmwg4ukdl__30izcuwnwc)"/>
  </g>
</svg>
